<?xml version="1.0" standalone="no"?>
<!DOCTYPE svg PUBLIC "-//W3C//DTD SVG 20010904//EN"
 "http://www.w3.org/TR/2001/REC-SVG-20010904/DTD/svg10.dtd">
<svg version="1.0" xmlns="http://www.w3.org/2000/svg"
 width="256.000000pt" height="256.000000pt" viewBox="0 0 256.000000 256.000000"
 preserveAspectRatio="xMidYMid meet">
<metadata>
Created by potrace 1.11, written by Peter Selinger 2001-2013
</metadata>
<g transform="translate(0.000000,256.000000) scale(0.100000,-0.100000)"
fill="#000000" stroke="none">
<path d="M1109 2549 c-286 -42 -523 -162 -749 -379 -71 -68 -175 -218 -231
-332 -91 -188 -128 -363 -124 -578 4 -157 6 -173 36 -297 114 -466 511 -843
990 -938 94 -19 340 -28 409 -15 25 4 63 11 85 14 22 4 58 12 80 18 22 6 45
12 50 14 6 1 39 13 75 27 440 166 760 568 818 1027 9 71 8 290 -1 355 -58 405
-324 772 -692 957 -84 43 -220 92 -295 107 -30 6 -68 13 -85 17 -50 10 -306
12 -366 3z"/>
</g>
</svg>
